<svg xmlns="http://www.w3.org/2000/svg" xmlns:xlink="http://www.w3.org/1999/xlink" xml:space="preserve" style="shape-rendering:geometricPrecision;text-rendering:geometricPrecision;image-rendering:optimizeQuality;" viewBox="0 0 1.70666 2.133325" x="0px" y="0px" fill-rule="evenodd" clip-rule="evenodd"><defs><style type="text/css">
   
    .fil0 {fill:black}
   
  </style></defs><g><path class="fil0" d="M1.68666 1.18596l-1.66666 0c-0.0110394,0 -0.02,-0.00897244 -0.02,-0.02l0 -1.07708c0,-0.0110394 0.00896063,-0.02 0.02,-0.02l1.66666 0c0.0110394,0 0.02,0.00896063 0.02,0.02l0 1.07708c0,0.0110433 -0.00896063,0.02 -0.02,0.02zm-1.64666 -0.0400157l1.62666 0 0 -1.03708 -1.62666 0 0 1.03708z"/><path class="fil0" d="M1.68666 0.980925l-1.66666 0c-0.0263268,0 -0.0263268,-0.04 0,-0.04l1.66666 0c0.0263268,0 0.0263268,0.04 0,0.04z"/><path class="fil0" d="M1.07719 1.45289l-0.447449 0c-0.0125551,0 -0.0220512,-0.0115433 -0.0196102,-0.0238661l0.052626 -0.266929c0.00184646,-0.00937402 0.0100669,-0.0161339 0.019626,-0.0161339l0.341917 0c0.00955118,0 0.0177638,0.00676378 0.019626,0.0161339l0.0532756 0.270787c0,0.0110354 -0.00895669,0.0200079 -0.0200118,0.0200079zm-0.423126 -0.0400118l0.398512 0 -0.0447323 -0.226917 -0.309031 0 -0.044748 0.226917z"/><path class="fil0" d="M0.984957 1.3773c-0.00935827,0 -0.0177047,-0.0066063 -0.0195945,-0.0161339l-0.0228189 -0.115748c-0.00508268,-0.0258386 0.0341575,-0.0335512 0.039248,-0.00772441l0.0228189 0.115748c0.00243307,0.0123622 -0.00710236,0.0238583 -0.0196535,0.0238583z"/><path class="fil0" d="M1.25223 1.63779l-0.797787 0c-0.0110394,0 -0.02,-0.00897244 -0.02,-0.02l0 -0.114083c0,-0.0500709 0.040752,-0.0908346 0.0908346,-0.0908346l0.655382 3.93701e-006c0.0505,0 0.0915866,0.0410827 0.0915866,0.0915866l0 0.113331c-1.5748e-005,0.0110394 -0.00897638,0.0199961 -0.0200157,0.0199961zm-0.777787 -0.04l0.757787 0 0 -0.0933346c0,-0.0284449 -0.023122,-0.0515669 -0.0515709,-0.0515669l-0.655386 0c-0.0280276,0 -0.0508346,0.0228031 -0.0508346,0.0508189l3.93701e-006 0.0940827z"/><path class="fil0" d="M0.220819 1.08344l-0.0718071 0c-0.0263268,0 -0.0263268,-0.04 0,-0.04l0.0718071 0c0.0263228,0 0.0263307,0.04 0,0.04z"/><path class="fil0" d="M0.39226 1.08344l-0.0718031 0c-0.0263268,0 -0.0263268,-0.04 0,-0.04l0.0718031 0c0.0263228,0 0.0263386,0.04 0,0.04z"/><path class="fil0" d="M0.56372 1.08344l-0.0718071 0c-0.0263228,0 -0.0263228,-0.04 0,-0.04l0.0718071 0c0.0263228,0 0.0263307,0.04 0,0.04z"/><path class="fil0" d="M0.80237 0.980925l-0.310118 0c-0.00985039,0 -0.0182362,-0.00719685 -0.0197638,-0.0169173 -0.0207165,-0.13213 -0.00101575,-0.293984 0.0639724,-0.388957 0.00373622,-0.00545669 0.00989764,-0.00870866 0.0164961,-0.00870866l0.188705 0c0.00661024,0 0.0127756,0.00325197 0.0165,0.00870866 0.065126,0.095378 0.0846024,0.25648 0.0639567,0.388957 -0.00151181,0.00972835 -0.00988583,0.0169173 -0.019748,0.0169173zm-0.29276 -0.0400079l0.275402 0c0.0146811,-0.115291 -0.00230709,-0.250984 -0.054185,-0.334567l-0.167024 -7.87402e-006c-0.0518937,0.0836142 -0.0688504,0.219272 -0.0541929,0.334575z"/><path class="fil0" d="M0.790343 0.718957l-0.286051 0c-0.0263307,0 -0.0263307,-0.04 0,-0.04l0.286067 0c0.0263268,0 0.0263386,0.04 -1.5748e-005,0.04z"/><path class="fil0" d="M0.744429 0.606343l-0.191461 0c-0.0307913,0 -0.100744,-0.106996 -0.0672205,-0.189472 0.0311417,-0.0766299 0.151189,-0.10463 0.114622,-0.201472 -0.00620472,-0.0164331 0.0104567,-0.0324291 0.0266654,-0.0254173 0.00219685,0.000944882 0.218752,0.0972913 0.190685,0.300449 -0.00297244,0.0452205 -0.0247677,0.0849843 -0.0614173,0.112016 -0.00344488,0.00252362 -0.00761417,0.00389764 -0.011874,0.00389764zm-0.184028 -0.04l0.177165 0c0.0180669,-0.0148346 0.0378898,-0.0398622 0.0402638,-0.0791535 2.3622e-005,-0.000531496 8.26772e-005,-0.00105512 0.000165354,-0.00158661 0.0177087,-0.125583 -0.0762087,-0.204402 -0.130472,-0.238819 0.00322835,0.0923543 -0.102803,0.131224 -0.124717,0.185126 -0.0174488,0.0429331 0.00499606,0.104189 0.0375945,0.134433z"/><path class="fil0" d="M0.714917 0.500055c-0.0409409,0 0.00609843,-0.0557756 -0.0534606,-0.129933 -0.0164213,-0.0204449 0.0147835,-0.0454803 0.0311929,-0.0250276 0.0329843,0.0410984 0.0471654,0.0871811 0.0421339,0.136988 -0.00103937,0.0102874 -0.00973228,0.0179724 -0.0198661,0.0179724z"/><path class="fil0" d="M1.22217 0.980925l-0.293898 0c-0.0110394,0 -0.02,-0.0089685 -0.02,-0.02l0 -0.519579c0,-0.0110394 0.00897244,-0.02 0.02,-0.02l0.293898 0c0.0110394,0 0.02,0.00896063 0.02,0.02l0 0.519571c0,0.0110394 -0.00895276,0.0200079 -0.02,0.0200079zm-0.273898 -0.0400079l0.25389 0 0 -0.479571 -0.25389 0 0 0.479571z"/><path class="fil0" d="M1.22244 0.461346l-0.294165 0c-0.0157008,0 -0.0253031,-0.0173819 -0.0169134,-0.0306654l0.146961 -0.233031c0.00783858,-0.0124134 0.026,-0.0124291 0.0338386,0l0.145398 0.230567c0.0124213,0.0167087 -0.000795276,0.0331299 -0.0151181,0.0331299zm-0.257913 -0.04l0.221386 0 -0.110693 -0.175528 -0.110693 0.175528z"/><path class="fil0" d="M1.14505 0.339067l-0.139661 0c-0.0263307,0 -0.0263228,-0.04 0,-0.04l0.139661 0c0.0263268,0 0.0263307,0.04 0,0.04z"/><path class="fil0" d="M1.00909 0.848134c-0.0110394,0 -0.02,-0.00896063 -0.02,-0.02l0 -0.251902c0,-0.0263228 0.04,-0.0263228 0.04,0l0 0.251917c0,0.0110433 -0.00896063,0.0199843 -0.02,0.0199843z"/><path class="fil0" d="M1.14135 0.848134c-0.0110394,0 -0.02,-0.00896063 -0.02,-0.02l0 -0.251902c0,-0.0263228 0.04,-0.0263228 0.04,0l0 0.251917c7.87402e-006,0.0110433 -0.00896063,0.0199843 -0.02,0.0199843z"/><path class="fil0" d="M0.383441 0.258776l-0.253677 0c-0.0263307,0 -0.0263307,-0.04 0,-0.04l0.253677 0c0.0263268,0 0.0263307,0.04 0,0.04z"/><path class="fil0" d="M0.383441 0.35322l-0.253677 0c-0.0263307,0 -0.0263307,-0.04 0,-0.04l0.253677 0c0.0263268,0 0.0263307,0.04 0,0.04z"/><path class="fil0" d="M1.60201 0.736563l-0.253685 0c-0.0263307,0 -0.0263189,-0.04 0,-0.04l0.253685 0c0.0263307,0 0.0263307,0.04 0,0.04z"/><path class="fil0" d="M1.60201 0.831012l-0.253685 0c-0.0263307,0 -0.0263189,-0.04 0,-0.04l0.253685 0c0.0263307,0 0.0263307,0.04 0,0.04z"/></g><text x="0" y="16.70666" fill="#000000" font-size="5px" font-weight="bold" font-family="'Helvetica Neue', Helvetica, Arial-Unicode, Arial, Sans-serif">Created by Amir Ali</text><text x="0" y="21.70666" fill="#000000" font-size="5px" font-weight="bold" font-family="'Helvetica Neue', Helvetica, Arial-Unicode, Arial, Sans-serif">from the Noun Project</text></svg>